<svg xmlns="http://www.w3.org/2000/svg" viewBox="0 0 902.98 900.81"><defs><style>.cls-1{font-size:131px;fill:#fff;font-family:Urfa-ThinItalic, Urfa ThinItalic;font-weight:200;font-style:italic;}</style></defs><g id="Слой_2" data-name="Слой 2"><g id="_3_шаг" data-name="3 шаг"><text class="cls-1" transform="matrix(0.33, -0.93, 0.94, 0.33, 173.07, 388.73)">Р</text><text class="cls-1" transform="translate(189.08 337.19) rotate(-58.42) scale(0.99 1)">А</text><text class="cls-1" transform="matrix(0.71, -0.69, 0.7, 0.72, 226.46, 275.23)">С</text><text class="cls-1" transform="matrix(0.86, -0.48, 0.49, 0.87, 275.96, 225.63)">П</text><text class="cls-1" transform="translate(343.03 186.95) rotate(-13.48) scale(0.99 1)">И</text><text class="cls-1" transform="translate(420.75 168.29) rotate(1.6) scale(0.99 1)">С</text><text class="cls-1" transform="translate(491.42 169.44) rotate(16.07) scale(0.99 1)">А</text><text class="cls-1" transform="matrix(0.84, 0.52, -0.52, 0.85, 562.87, 188.9)">Н</text><text class="cls-1" transform="matrix(0.67, 0.73, -0.74, 0.68, 630.72, 229.45)">И</text><text class="cls-1" transform="translate(684.46 288.98) rotate(61.41) scale(0.99 1)">Е</text><text class="cls-1" transform="matrix(0.34, 0.93, -0.94, 0.34, 712.42, 342.64)"> </text><text class="cls-1" transform="translate(721.23 366.66) rotate(75.3) scale(0.99 1)"> </text><text class="cls-1" transform="translate(727.81 391.37) rotate(80.55) scale(0.99 1)"> </text><text class="cls-1" transform="matrix(0.07, 0.99, -1, 0.07, 732.1, 416.6)"> </text><text class="cls-1" transform="translate(734.05 442.09) rotate(91.06) scale(0.99 1)"> </text><text class="cls-1" transform="matrix(-0.17, 0.97, -0.98, -0.18, 735.51, 466.43)">Р</text><text class="cls-1" transform="translate(728.08 519.89) rotate(112.18) scale(0.99 1)">А</text><text class="cls-1" transform="translate(701.34 587.11) rotate(126.54) scale(0.99 1)">С</text><text class="cls-1" transform="translate(660.56 644.08) rotate(141.46) scale(0.99 1)">П</text><text class="cls-1" transform="matrix(-0.91, 0.38, -0.39, -0.92, 600.59, 693.02)">И</text><text class="cls-1" transform="translate(526.86 723.99) rotate(172.34) scale(0.99 1)">С</text><text class="cls-1" transform="matrix(-0.98, -0.12, 0.12, -0.99, 456.97, 734.22)">А</text><text class="cls-1" transform="translate(383.3 726.37) rotate(-157.82) scale(0.99 1)">Н</text><text class="cls-1" transform="translate(309.81 697.3) rotate(-141.85) scale(0.99 1)">И</text><text class="cls-1" transform="matrix(-0.61, -0.78, 0.79, -0.61, 247.19, 647.2)">Е</text></g></g></svg>