<svg xmlns="http://www.w3.org/2000/svg" xmlns:xlink="http://www.w3.org/1999/xlink" viewBox="0 0 18.81 26.77"><defs><style>.cls-1{fill:#fff;}.cls-2{fill:url(#Новый_образец_градиентной_залив);}.cls-3{fill:url(#Новый_образец_градиентной_залив-2);}.cls-4{fill:url(#Новый_образец_градиентной_залив-3);}.cls-5{fill:url(#Новый_образец_градиентной_залив-4);}.cls-6{fill:url(#Новый_образец_градиентной_залив-5);}.cls-7{fill:url(#Новый_образец_градиентной_залив-6);}.cls-8{fill:url(#Новый_образец_градиентной_залив-7);}.cls-9{fill:url(#Новый_образец_градиентной_залив-8);}.cls-10{fill:url(#Новый_образец_градиентной_залив-9);}.cls-11{fill:url(#Новый_образец_градиентной_залив-10);}</style><linearGradient id="Новый_образец_градиентной_залив" x1="-264.68" y1="347.12" x2="83.06" y2="-84.88" gradientUnits="userSpaceOnUse"><stop offset="0" stop-color="#fff258"/><stop offset="0.05" stop-color="#fae252"/><stop offset="0.12" stop-color="#f4cf4b"/><stop offset="0.2" stop-color="#f0c446"/><stop offset="0.28" stop-color="#efc045"/><stop offset="0.67" stop-color="#db8952"/><stop offset="0.89" stop-color="#d36d50"/><stop offset="1" stop-color="#ce584f"/></linearGradient><linearGradient id="Новый_образец_градиентной_залив-2" x1="2.44" y1="14.69" x2="6.13" y2="14.69" xlink:href="#Новый_образец_градиентной_залив"/><linearGradient id="Новый_образец_градиентной_залив-3" x1="7.56" y1="14.69" x2="11.25" y2="14.69" xlink:href="#Новый_образец_градиентной_залив"/><linearGradient id="Новый_образец_градиентной_залив-4" x1="12.68" y1="14.69" x2="16.36" y2="14.69" xlink:href="#Новый_образец_градиентной_залив"/><linearGradient id="Новый_образец_градиентной_залив-5" x1="2.44" y1="18.76" x2="6.13" y2="18.76" xlink:href="#Новый_образец_градиентной_залив"/><linearGradient id="Новый_образец_градиентной_залив-6" x1="7.56" y1="18.76" x2="11.25" y2="18.76" xlink:href="#Новый_образец_градиентной_залив"/><linearGradient id="Новый_образец_градиентной_залив-7" x1="12.68" y1="18.76" x2="16.36" y2="18.76" xlink:href="#Новый_образец_градиентной_залив"/><linearGradient id="Новый_образец_градиентной_залив-8" x1="2.44" y1="22.83" x2="6.13" y2="22.83" xlink:href="#Новый_образец_градиентной_залив"/><linearGradient id="Новый_образец_градиентной_залив-9" x1="7.56" y1="22.83" x2="11.25" y2="22.83" xlink:href="#Новый_образец_градиентной_залив"/><linearGradient id="Новый_образец_градиентной_залив-10" x1="12.68" y1="22.83" x2="16.36" y2="22.83" xlink:href="#Новый_образец_градиентной_залив"/></defs><g id="Слой_2" data-name="Слой 2"><g id="Слой_1-2" data-name="Слой 1"><g id="Каликулилятор"><path class="cls-1" d="M18.81,23.94a2.79,2.79,0,0,1-2.75,2.83H2.75A2.79,2.79,0,0,1,0,23.94V2.83A2.79,2.79,0,0,1,2.75,0H16.06a2.79,2.79,0,0,1,2.75,2.83Z"/><rect class="cls-2" x="2.02" y="2.64" width="14.77" height="7.96" rx="0.58"/><path class="cls-3" d="M6.13,15.64a.48.48,0,0,1-.45.51H2.9a.49.49,0,0,1-.46-.51v-1.9a.49.49,0,0,1,.46-.51H5.68a.48.48,0,0,1,.45.51Z"/><path class="cls-4" d="M11.25,15.64a.49.49,0,0,1-.46.51H8a.48.48,0,0,1-.45-.51v-1.9A.48.48,0,0,1,8,13.23h2.78a.49.49,0,0,1,.46.51Z"/><path class="cls-5" d="M16.36,15.64a.48.48,0,0,1-.45.51H13.13a.48.48,0,0,1-.45-.51v-1.9a.48.48,0,0,1,.45-.51h2.78a.48.48,0,0,1,.45.51Z"/><path class="cls-6" d="M6.13,19.71a.48.48,0,0,1-.45.51H2.9a.49.49,0,0,1-.46-.51v-1.9a.49.49,0,0,1,.46-.51H5.68a.48.48,0,0,1,.45.51Z"/><path class="cls-7" d="M11.25,19.71a.49.49,0,0,1-.46.51H8a.48.48,0,0,1-.45-.51v-1.9A.48.48,0,0,1,8,17.3h2.78a.49.49,0,0,1,.46.51Z"/><path class="cls-8" d="M16.36,19.71a.48.48,0,0,1-.45.51H13.13a.48.48,0,0,1-.45-.51v-1.9a.48.48,0,0,1,.45-.51h2.78a.48.48,0,0,1,.45.51Z"/><path class="cls-9" d="M6.13,23.78a.48.48,0,0,1-.45.51H2.9a.49.49,0,0,1-.46-.51v-1.9a.49.49,0,0,1,.46-.51H5.68a.48.48,0,0,1,.45.51Z"/><path class="cls-10" d="M11.25,23.78a.49.49,0,0,1-.46.51H8a.48.48,0,0,1-.45-.51v-1.9A.48.48,0,0,1,8,21.37h2.78a.49.49,0,0,1,.46.51Z"/><path class="cls-11" d="M16.36,23.78a.48.48,0,0,1-.45.51H13.13a.48.48,0,0,1-.45-.51v-1.9a.48.48,0,0,1,.45-.51h2.78a.48.48,0,0,1,.45.51Z"/></g></g></g></svg>