<svg xmlns="http://www.w3.org/2000/svg" viewBox="0 0 29.88 29.88"><g id="Слой_2" data-name="Слой 2"><g id="Слой_1-2" data-name="Слой 1"><g id="Меню_слева" data-name="Меню слева"><path d="M4.33,18.48,18.47,4.34l7.06,7.07L11.4,25.54Z"/><path d="M3.45,19.36,2.13,20.68a1.28,1.28,0,0,0-.37,1L1.84,23,.06,28.23a1.27,1.27,0,0,0,.81,1.59,1.3,1.3,0,0,0,.78,0L6.85,28l1.39.08a1.28,1.28,0,0,0,.95-.37l1.33-1.32Z"/><path d="M29.51,5.67,24.21.37a1.24,1.24,0,0,0-1.76,0l-3.1,3.09,7.07,7.06,3.09-3.09a1.24,1.24,0,0,0,0-1.76Z"/></g></g></g></svg>