<svg xmlns="http://www.w3.org/2000/svg" viewBox="0 0 21.66 32.57"><g id="Слой_2" data-name="Слой 2"><g id="Слой_1-2" data-name="Слой 1"><g id="Меню_слева" data-name="Меню слева"><polygon points="21.66 15.78 18.61 15.78 16.95 18.26 15.85 15.78 13.07 15.78 15.29 20.78 11.76 26.08 14.81 26.08 16.51 23.53 17.64 26.08 20.42 26.08 18.18 21.02 21.66 15.78"/><path d="M11.31,4c.11-.71.59-1.47,1.29-1.47a1.28,1.28,0,0,1,1.27,1.28h2.54A3.82,3.82,0,0,0,12.6,0,4,4,0,0,0,8.79,3.63L8,9.16H4.07v2.55H7.6L5.1,28.57v.06A1.5,1.5,0,0,1,3.82,30a1.28,1.28,0,0,1-1.28-1.27H0a3.82,3.82,0,0,0,3.82,3.81,4,4,0,0,0,3.8-3.66l2.55-17.2H14V9.16H10.55Z"/></g></g></g></svg>