<svg xmlns="http://www.w3.org/2000/svg" viewBox="0 0 25.3 25.3"><g id="Слой_2" data-name="Слой 2"><g id="Слой_1-2" data-name="Слой 1"><g id="Меню_слева" data-name="Меню слева"><path d="M6.32,1.58V0H.79A.79.79,0,0,0,0,.79V6.32H1.58V2.7L8.92,10,10,8.92,2.7,1.58Z"/><path d="M24.51,0H19V1.58H22.6L15.26,8.92,16.37,10,23.72,2.7V6.32H25.3V.79A.79.79,0,0,0,24.51,0Z"/><path d="M23.72,22.6l-7.35-7.34-1.11,1.11,7.34,7.35H19V25.3h5.54a.8.8,0,0,0,.79-.79V19H23.72Z"/><path d="M8.92,15.25,1.58,22.6V19H0v5.54a.79.79,0,0,0,.79.79H6.32V23.72H2.7L10,16.37Z"/></g></g></g></svg>