<svg xmlns="http://www.w3.org/2000/svg" viewBox="0 0 21.3 27.57"><g id="Слой_2" data-name="Слой 2"><g id="Слой_1-2" data-name="Слой 1"><g id="Меню_слева" data-name="Меню слева"><path d="M1.14,15A1.14,1.14,0,0,0,0,16.19a1.1,1.1,0,0,0,.34.8l8.1,8.1a8.41,8.41,0,0,0,6,2.48,6.9,6.9,0,0,0,6.89-6.89V6.27a1.25,1.25,0,1,0-2.5,0V11.9a.63.63,0,0,1-.63.63.63.63,0,0,1-.63-.63V3.76a1.25,1.25,0,1,0-2.5,0V11.9a.63.63,0,1,1-1.25,0V1.25a1.26,1.26,0,0,0-2.51,0V11.9a.63.63,0,1,1-1.25,0V3.76a1.26,1.26,0,0,0-2.51,0V16.92a.63.63,0,0,1-.63.62.71.71,0,0,1-.28-.06L2.26,15.3A2.56,2.56,0,0,0,1.14,15Z"/></g></g></g></svg>