<svg xmlns="http://www.w3.org/2000/svg" viewBox="0 0 30.36 24.9"><g id="Слой_2" data-name="Слой 2"><g id="Слой_1-2" data-name="Слой 1"><g id="Меню_слева" data-name="Меню слева"><path d="M4.51,5.34a.89.89,0,1,0-.89-.89A.89.89,0,0,0,4.51,5.34Zm3.55,0a.89.89,0,1,0-.89-.89A.89.89,0,0,0,8.06,5.34ZM29.47,0H.89A.89.89,0,0,0,0,.89V24a.89.89,0,0,0,.89.89H29.47a.89.89,0,0,0,.89-.89V.89A.89.89,0,0,0,29.47,0Zm-.89,23.12H1.78V8.89h26.8Zm0-16H1.78V1.78h26.8Zm-17-1.77a.89.89,0,1,0-.89-.89A.89.89,0,0,0,11.62,5.34Zm5.34,0h8.89a.89.89,0,1,0,0-1.78H17a.89.89,0,0,0,0,1.78Z"/><path d="M4.53,15.09a1.71,1.71,0,0,0,.6.29,4.85,4.85,0,0,1,1.44.7A1.2,1.2,0,0,1,7,17a2.28,2.28,0,0,1,0,.37c-.09.89-.68,1.33-1.77,1.33a5.17,5.17,0,0,1-1-.1,4.12,4.12,0,0,1-.83-.23l.19-.75a4.49,4.49,0,0,0,1.55.29q.93,0,.93-.72A.59.59,0,0,0,6,16.72a1.5,1.5,0,0,0-.79-.47,5.88,5.88,0,0,1-1.24-.53,1.49,1.49,0,0,1-.44-1.11,1.55,1.55,0,0,1,.25-.95c.21-.33.71-.52,1.47-.52a4.76,4.76,0,0,1,1.67.3l-.21.77a4.16,4.16,0,0,0-1.37-.28c-.85,0-.88.45-.88.68A.73.73,0,0,0,4.53,15.09Z"/><path d="M11,14a3,3,0,0,0-1.67.56v4.06H8.4V13.24h.68l.12.58A3.25,3.25,0,0,1,11,13.09Z"/><path d="M15.91,16.31H12.73v.57c0,.69.44,1,1.33,1a4.27,4.27,0,0,0,1.34-.22l.19.74a4.83,4.83,0,0,1-1.62.26c-1.32,0-2.16-.57-2.16-1.77v-2c0-1.14.82-1.79,2-1.79s2.05.65,2.05,1.79Zm-2.05-2.38A1,1,0,0,0,12.73,15v.64H15V15A1,1,0,0,0,13.86,13.93Z"/><path d="M21.28,16.31H18.1v.57c0,.69.44,1,1.33,1a4.33,4.33,0,0,0,1.35-.22l.18.74a4.79,4.79,0,0,1-1.62.26c-1.32,0-2.15-.57-2.15-1.77v-2c0-1.14.81-1.79,2-1.79s2,.65,2,1.79Zm-2-2.38A1,1,0,0,0,18.1,15v.64h2.25V15A1,1,0,0,0,19.24,13.93Z"/><path d="M27.07,14.79v3.8h-.93V14.85c0-.58-.32-.87-1-.87a2.85,2.85,0,0,0-1.49.56v4.05h-.92V13.24h.69l.11.56a3.57,3.57,0,0,1,1.83-.66C26.46,13.14,27.07,13.59,27.07,14.79Z"/></g></g></g></svg>