<svg xmlns="http://www.w3.org/2000/svg" viewBox="0 0 31.72 31.72"><g id="Слой_2" data-name="Слой 2"><g id="Слой_1-2" data-name="Слой 1"><g id="Меню_слева" data-name="Меню слева"><path d="M31.45,8.16,23.56.27a.93.93,0,0,0-1.31,0l-4.2,4.19a.94.94,0,0,0,0,1.32l7.89,7.89a1,1,0,0,0,.66.27.93.93,0,0,0,.66-.27l4.19-4.19A.94.94,0,0,0,31.45,8.16Z"/><path d="M24.63,15,16.74,7.09l0,0L7.82,11.5a.9.9,0,0,0-.45.49L0,30.41l11.3-11.3c.44.44.88.87,1.31,1.31L1.31,31.72l18.42-7.36a1,1,0,0,0,.49-.45L24.67,15S24.64,15,24.63,15Z"/></g></g></g></svg>