<svg xmlns="http://www.w3.org/2000/svg" viewBox="0 0 13.32 10.52"><defs><style>.cls-1{fill:#639eb4;}</style></defs><g id="Слой_2" data-name="Слой 2"><g id="Открыто"><g id="Чат"><path class="cls-1" d="M8.06,10.52a.6.6,0,0,1-.41-.17.59.59,0,0,1,0-.82l4.69-4.68a.58.58,0,0,1,.81,0,.57.57,0,0,1,0,.82L8.47,10.35A.58.58,0,0,1,8.06,10.52Z"/><path class="cls-1" d="M12.74,5.84H.58a.58.58,0,0,1,0-1.16H12.74a.58.58,0,0,1,0,1.16Z"/><path class="cls-1" d="M12.74,5.84a.58.58,0,0,1-.4-.17L7.65,1a.58.58,0,0,1,0-.81.57.57,0,0,1,.82,0l4.68,4.68a.57.57,0,0,1,0,.82A.58.58,0,0,1,12.74,5.84Z"/></g></g></g></svg>