<svg xmlns="http://www.w3.org/2000/svg" viewBox="0 0 33.42 20.61"><g id="Слой_2" data-name="Слой 2"><g id="Слой_1-2" data-name="Слой 1"><g id="Меню_слева" data-name="Меню слева"><polygon points="33.42 1.09 33.42 0 28.71 0 28.71 1.09 30.52 1.09 30.52 19.52 28.71 19.52 28.71 20.61 33.42 20.61 33.42 19.52 31.61 19.52 31.61 1.09 33.42 1.09"/><path d="M.2,16.15,5.71,3.71a2.16,2.16,0,0,1,2-1.37H8a2.13,2.13,0,0,1,2,1.37l5.51,12.44a1.77,1.77,0,0,1,.18.7A1.66,1.66,0,0,1,14,18.53a1.77,1.77,0,0,1-1.67-1.2l-1.06-2.49h-7l-1.1,2.6A1.72,1.72,0,0,1,1.6,18.53,1.6,1.6,0,0,1,0,16.9,1.91,1.91,0,0,1,.2,16.15ZM10,11.77,7.79,6.56,5.6,11.77Z"/><path d="M17.29,14.91v0c0-2.64,2-3.86,4.88-3.86a8.71,8.71,0,0,1,3,.49v-.2c0-1.42-.88-2.21-2.6-2.21a7.67,7.67,0,0,0-2.37.34,1.66,1.66,0,0,1-.5.09,1.4,1.4,0,0,1-1.42-1.4,1.45,1.45,0,0,1,.93-1.34A10.67,10.67,0,0,1,23,6.15a5.6,5.6,0,0,1,4.09,1.36,5.27,5.27,0,0,1,1.3,3.86v5.51a1.64,1.64,0,0,1-1.67,1.64,1.52,1.52,0,0,1-1.64-1.42v0a4.65,4.65,0,0,1-3.66,1.54C19.17,18.62,17.29,17.31,17.29,14.91Zm7.88-.79v-.61A5.3,5.3,0,0,0,23,13.06c-1.46,0-2.37.59-2.37,1.67v0c0,.92.77,1.46,1.88,1.46C24.09,16.24,25.17,15.36,25.17,14.12Z"/></g></g></g></svg>