<svg xmlns="http://www.w3.org/2000/svg" xmlns:xlink="http://www.w3.org/1999/xlink" viewBox="0 0 971.05 900.81"><defs><style>.cls-1,.cls-2{fill:none;}.cls-2{stroke:#fff;stroke-miterlimit:10;stroke-width:0.25px;}.cls-3{isolation:isolate;}.cls-4{fill:#f9f9f9;}.cls-5{clip-path:url(#clip-path);}.cls-6{fill:url(#linear-gradient);}.cls-13,.cls-7{opacity:0.63;}.cls-7{fill:url(#Degradado_sin_nombre_8);}.cls-8{fill:url(#Безымянный_градиент_81);}.cls-14,.cls-15,.cls-27,.cls-9{opacity:0.65;}.cls-9{fill:url(#Degradado_sin_nombre_12);}.cls-10,.cls-31{opacity:0.54;}.cls-10{fill:url(#Degradado_sin_nombre_8-2);}.cls-11,.cls-32{opacity:0.57;}.cls-11{fill:url(#Degradado_sin_nombre_36);}.cls-12{fill:url(#Degradado_sin_nombre_7);}.cls-13{fill:url(#Degradado_sin_nombre_8-3);}.cls-14{fill:url(#Degradado_sin_nombre_26);}.cls-15{fill:url(#Degradado_sin_nombre_12-2);}.cls-16{fill:#ffec14;}.cls-17{fill:url(#Безымянный_градиент_81-2);}.cls-18{mix-blend-mode:color-dodge;}.cls-19{fill:url(#New_Gradient_Swatch_17);}.cls-20{clip-path:url(#clip-path-2);}.cls-21{font-size:131px;fill:#fff;font-family:Urfa-ThinItalic, Urfa ThinItalic;font-weight:200;font-style:italic;}.cls-22{mix-blend-mode:multiply;fill:url(#radial-gradient);}.cls-23{fill:#f7f7f7;}.cls-24{fill:url(#New_Gradient_Swatch_17-2);}.cls-25{clip-path:url(#clip-path-3);}.cls-26{fill:url(#Degradado_sin_nombre_7-2);}.cls-27{fill:url(#Degradado_sin_nombre_26-2);}.cls-28{fill:url(#linear-gradient-2);}.cls-29{fill:url(#linear-gradient-3);}.cls-30{fill:url(#linear-gradient-4);}.cls-31{fill:url(#Degradado_sin_nombre_8-7);}.cls-32{fill:url(#Degradado_sin_nombre_36-3);}</style><clipPath id="clip-path" transform="translate(118.79 75.54)"><ellipse class="cls-1" cx="377.48" cy="375.52" rx="373.21" ry="371.27"/></clipPath><linearGradient id="linear-gradient" x1="-118.79" y1="473.42" x2="164.1" y2="473.42" gradientUnits="userSpaceOnUse"><stop offset="0" stop-color="#41c5ee"/><stop offset="0.04" stop-color="#5dcbee"/><stop offset="0.08" stop-color="#7cd2ed"/><stop offset="0.13" stop-color="#94d8ed"/><stop offset="0.19" stop-color="#a5dced"/><stop offset="0.24" stop-color="#afdeed"/><stop offset="0.31" stop-color="#b2dfed"/><stop offset="0.56" stop-color="#87c6d9"/><stop offset="1" stop-color="#2e92b0"/></linearGradient><linearGradient id="Degradado_sin_nombre_8" x1="-82.31" y1="561.15" x2="463.38" y2="561.15" gradientUnits="userSpaceOnUse"><stop offset="0" stop-color="#800"/><stop offset="1" stop-color="#ff2d7c"/></linearGradient><radialGradient id="Безымянный_градиент_81" cx="79.08" cy="583.34" r="151.46" gradientUnits="userSpaceOnUse"><stop offset="0" stop-color="#f9efa8"/><stop offset="0.14" stop-color="#faef9c"/><stop offset="0.39" stop-color="#fbee7b"/><stop offset="0.72" stop-color="#fded46"/><stop offset="1" stop-color="#ffec14"/></radialGradient><linearGradient id="Degradado_sin_nombre_12" x1="45.29" y1="423.93" x2="194.34" y2="423.93" gradientUnits="userSpaceOnUse"><stop offset="0" stop-color="#3500ff"/><stop offset="1" stop-color="#ff2db4"/></linearGradient><linearGradient id="Degradado_sin_nombre_8-2" x1="-89.21" y1="489.46" x2="38.88" y2="489.46" xlink:href="#Degradado_sin_nombre_8"/><linearGradient id="Degradado_sin_nombre_36" x1="15.31" y1="539.88" x2="82.3" y2="539.88" gradientUnits="userSpaceOnUse"><stop offset="0" stop-color="#ff7728"/><stop offset="0.97" stop-color="#ffe22d"/></linearGradient><linearGradient id="Degradado_sin_nombre_7" x1="-213.09" y1="1236.87" x2="69.81" y2="1236.87" gradientTransform="translate(639.18 1494.22) rotate(180)" gradientUnits="userSpaceOnUse"><stop offset="0" stop-color="#ff7728"/><stop offset="0.97" stop-color="#ff552c"/></linearGradient><linearGradient id="Degradado_sin_nombre_8-3" x1="-176.6" y1="1324.6" x2="369.09" y2="1324.6" gradientTransform="translate(639.18 1494.22) rotate(180)" xlink:href="#Degradado_sin_nombre_8"/><linearGradient id="Degradado_sin_nombre_26" x1="-182.39" y1="1346.79" x2="151.95" y2="1346.79" gradientTransform="translate(639.18 1494.22) rotate(180)" gradientUnits="userSpaceOnUse"><stop offset="0" stop-color="#ffb500"/><stop offset="1" stop-color="#ff2db4"/></linearGradient><linearGradient id="Degradado_sin_nombre_12-2" x1="-49" y1="1187.39" x2="100.04" y2="1187.39" gradientTransform="translate(639.18 1494.22) rotate(180)" xlink:href="#Degradado_sin_nombre_12"/><radialGradient id="Безымянный_градиент_81-2" cx="231.42" cy="115.9" r="74.91" xlink:href="#Безымянный_градиент_81"/><radialGradient id="New_Gradient_Swatch_17" cx="-211.47" cy="-142.98" r="688.87" gradientTransform="translate(492.83 316.52) rotate(90) scale(1 1.01)" gradientUnits="userSpaceOnUse"><stop offset="0.01" stop-color="#1a1a1a"/><stop offset="0.99"/></radialGradient><clipPath id="clip-path-2" transform="translate(118.79 75.54)"><ellipse class="cls-2" cx="377.48" cy="375.52" rx="373.21" ry="371.27"/></clipPath><radialGradient id="radial-gradient" cx="-534.86" cy="-87.37" r="415" gradientTransform="translate(397.15 892.3) rotate(90) scale(0.76 0.77)" gradientUnits="userSpaceOnUse"><stop offset="0.64" stop-color="#999"/><stop offset="0.7" stop-color="#b8b8b8"/><stop offset="0.77" stop-color="#d7d7d7"/><stop offset="0.84" stop-color="#ededed"/><stop offset="0.91" stop-color="#fafafa"/><stop offset="0.98" stop-color="#fff"/></radialGradient><radialGradient id="New_Gradient_Swatch_17-2" cx="-147.4" cy="-80.03" r="520.61" xlink:href="#New_Gradient_Swatch_17"/><clipPath id="clip-path-3" transform="translate(118.79 75.54)"><path class="cls-1" d="M659.53,373.52c0-154.71-126.52-280.58-282-280.58s-282,125.87-282,280.58S222,654.11,377.48,654.11,659.53,528.24,659.53,373.52Z"/></clipPath><linearGradient id="Degradado_sin_nombre_7-2" x1="-118.79" y1="473.42" x2="164.1" y2="473.42" gradientTransform="matrix(1, 0, 0, 1, 0, 0)" xlink:href="#Degradado_sin_nombre_7"/><linearGradient id="Degradado_sin_nombre_26-2" x1="-88.09" y1="583.34" x2="246.24" y2="583.34" gradientTransform="matrix(1, 0, 0, 1, 0, 0)" xlink:href="#Degradado_sin_nombre_26"/><linearGradient id="linear-gradient-2" x1="45.29" y1="423.93" x2="194.34" y2="423.93" gradientUnits="userSpaceOnUse"><stop offset="0" stop-color="#b2dfed"/><stop offset="0.51" stop-color="#41c5ee"/><stop offset="0.61" stop-color="#45c6ee"/><stop offset="0.7" stop-color="#50c8ee"/><stop offset="0.79" stop-color="#62cdee"/><stop offset="0.87" stop-color="#7cd3ed"/><stop offset="0.96" stop-color="#9edaed"/><stop offset="1" stop-color="#b2dfed"/></linearGradient><linearGradient id="linear-gradient-3" x1="433.01" y1="614.87" x2="571.09" y2="614.87" xlink:href="#linear-gradient"/><linearGradient id="linear-gradient-4" x1="487.23" y1="147.42" x2="821.57" y2="147.42" xlink:href="#linear-gradient-2"/><linearGradient id="Degradado_sin_nombre_8-7" x1="-183.5" y1="1252.92" x2="-55.42" y2="1252.92" gradientTransform="translate(639.18 1494.22) rotate(180)" xlink:href="#Degradado_sin_nombre_8"/><linearGradient id="Degradado_sin_nombre_36-3" x1="-78.98" y1="1303.33" x2="-12" y2="1303.33" gradientTransform="translate(639.18 1494.22) rotate(180)" xlink:href="#Degradado_sin_nombre_36"/></defs><g class="cls-3"><g id="Слой_2" data-name="Слой 2"><g id="_1_шаг" data-name="1 шаг"><ellipse class="cls-4" cx="496.27" cy="451.06" rx="375.35" ry="373.4"/><g class="cls-5"><path class="cls-6" d="M163.68,417.6c1.87,12.24-2.38,25.88-12.56,32.91-16.24,11.22-39.13,2.23-57.76,8.72-15.72,5.49-25.8,21.32-30,37.45s-3.7,33.06-5.2,49.66-5.45,33.88-16.7,46.17S9.88,610-3.48,600c-12.95-9.64-14.48-28.64-11.25-44.47s10-31.24,9.38-47.39S-18,474.41-34.09,475.73C-49.24,477-58.42,494.1-58.46,509.32s6,29.79,7.86,44.89-2.1,33-15.71,39.78c-13.85,6.9-31.39-1.64-39.75-14.67s-9.9-29.16-11.18-44.6c-1.77-21.27-3.42-43.25,3.51-63.43s24.87-38.17,46.18-38.19c7,0,14.06,1.89,21,.67,13.58-2.4,22.36-16,26-29.32s3.9-27.53,9-40.35,17.51-24.5,31.11-22.24c20.93,3.48,26.48,34.62,46.72,41,9.41,3,19.58-.31,28.7-4.11,18.34-7.65,33.53-11.11,49.35,3.45C153.81,391,161.73,404.87,163.68,417.6Z" transform="translate(118.79 75.54)"/><path class="cls-7" d="M49.54,467.6c-3.16,21.09,9.65,44.13,30,50.51,20.85,6.54,48.1-2.47,62.27,14.18,10.36,12.18,6.4,30.62,1.21,45.75s-10.92,32.5-2.9,46.35c9.3,16.06,32.73,17.87,49.69,10.36s30-21.59,45.15-32.29,35.35-18.05,52-10c18.52,9,25,33,42.29,44.26,12.91,8.41,29.63,8.17,44.77,5.3s30-8,45.35-8.54,32.28,4.93,40.06,18.24c11.14,19-2.82,45.12-23.14,53.65s-43.7,4-64.54-3.17-41.22-16.93-63.18-18.75c-42.78-3.55-81.3,23.07-118.71,44.14-21.78,12.26-47.08,23.25-71.09,16.31-39.32-11.36-57.06-65.35-97.63-70.79-25.93-3.48-53.31,15-77.26,4.43-16.36-7.22-24.74-26.11-26-44A87.26,87.26,0,0,1-63,573.16c11.55-14.23,27.76-25,35.74-41.48,8.89-18.4,5.76-40.17,1.39-60.15s-9.77-40.71-4.86-60.55,24.56-37.81,44.32-32.64C28.62,382.27,39,398,54.47,399.91c17.61,2.23,25.93-12.49,40-19.53,7.35-3.68,16-5.47,23.86-3.16s14.63,9.41,14.92,17.63c.4,11.47-10.91,20-21.89,23.23C83.69,426.3,54.64,433.51,49.54,467.6Z" transform="translate(118.79 75.54)"/><path class="cls-8" d="M200.42,574.79c-1.51-13.39-6.91-27.31-2-39.87,7.76-20,36.56-24.3,45.58-43.72,7.67-16.52-5.18-38.13-23.1-41.31s-36.41,10.4-41.07,28c-2,7.63-1.84,15.76-4.44,23.21s-9.4,14.48-17.21,13.42c-8.27-1.13-12.84-10.5-13.46-18.85s1.19-16.93-1-25A25.78,25.78,0,0,0,99.81,460c-12.78,13.9-6.71,36.84,4.62,52s27.15,27.17,34.8,44.44c3.74,8.44,5.08,18.92-.24,26.46s-19,8.53-22.88.18c-3.48-7.41,2.28-16.06,1.18-24.17-1.5-11-16.36-16.38-26.22-11.19s-14.45,17.22-14.32,28.37c.18,14.54,6.34,31-2.7,42.4-7.45,9.38-21.72,9.77-33.18,6.31C9,615.17-13.07,580.06-7.88,547.09c2.48-15.73,10.3-31.67,5.49-46.85-4.19-13.18-18.45-22.25-32.17-20.7S-60.1,492.89-61.94,506.6c-2.49,18.46,11.07,37.87,3.65,54.95C-63.68,574-78.14,575.73-85,587.35c-3.84,6.47-4.48,15.48.55,21.06,7.92,8.8,23.22,4,33.3,10.18,10.73,6.6,10.8,22.35,6.84,34.32S-55,676.7-53.5,689.22c1.71,13.88,14.17,25,27.93,27.44S2.55,713.84,13.33,705c7.54-6.22,13.56-14.11,21-20.4s17.2-11,26.79-9.18c11.68,2.26,19.22,13.18,27.8,21.42s23.2,14,31.64,5.63c6.35-6.31,5.1-16.65,6.61-25.48,2.92-17.13,37.12-25.91,49-38.22C192.45,621.85,203.1,598.56,200.42,574.79Z" transform="translate(118.79 75.54)"/><path class="cls-9" d="M95.93,459.09c1.74,9.24,1.12,20.8,9.23,25.53,9.12,5.32,20.22-3.71,24.87-13.2s7.41-21,16.46-26.49c6.31-3.81,14.16-3.6,21.36-5.19,13.21-2.94,25.27-13.73,26.42-27.23s-11.83-27.3-25-24.31c-19,4.3-32.6,23.51-47.61-1.74-3.65-6.13-5.88-13.3-11-18.22-7.07-6.71-18-7.52-27.53-5.82-11,1.95-21.85,6.95-29.19,15.44s-10.73,20.77-7.13,31.41C54.93,433.51,90.28,429.13,95.93,459.09Z" transform="translate(118.79 75.54)"/><path class="cls-10" d="M30.1,408.49c13.57,15.69,11.44,43.88-6.68,53.95-12,6.66-28.44,5.2-37.53,15.46-7.85,8.85-6.44,22.61-2.2,33.66S-5.48,533-4.17,544.78a39,39,0,0,1-15.39,35.08,38.91,38.91,0,0,1-38,4.11C-76.27,575.68-85.22,554.06-88,533.8c-5.33-38.95,7.16-79.51,31.74-109.92C-34.93,397.49,1.36,375.29,30.1,408.49Z" transform="translate(118.79 75.54)"/><path class="cls-1" d="M485.9,609.82c11.88-9.08,14.2-25.65,17.22-40.31s10-31.27,24.59-34.48c16.32-3.59,30.54,12.21,36.63,27.8a102.37,102.37,0,0,1-7.57,88.75c-12.62,20.9-33.51,37.09-57.39,42.07-22.07,4.6-60.23.06-65.55-26.86-2.51-12.72.65-29.85,10.24-38.93C455.6,616.94,473.54,619.28,485.9,609.82Z" transform="translate(118.79 75.54)"/><path class="cls-11" d="M44.22,479.29c-7.39.61-12.71,8-13.58,15.43s1.59,14.69,3.9,21.75,4.54,14.51,3.19,21.81c-2.75,15-19.32,24.36-22.07,39.31A23.71,23.71,0,0,0,28,602.35a23.66,23.66,0,0,0,27.18-4.88c7.22-7.75,8.24-19.32,7.92-29.91S61.51,546,65.49,536.13s12.83-17.33,15.84-27.52c3.69-12.48-3.53-27.2-15.64-31.91S38.33,478,32.63,489.65" transform="translate(118.79 75.54)"/><path class="cls-12" d="M569.8,313.16c-1.87-12.23,2.38-25.88,12.55-32.91,16.24-11.22,39.13-2.22,57.76-8.72,15.72-5.48,25.8-21.31,30-37.45s3.7-33.05,5.2-49.65,5.46-33.89,16.71-46.17,31.57-17.46,44.93-7.51c13,9.64,14.48,28.64,11.25,44.48s-10,31.24-9.38,47.39,12.65,33.73,28.74,32.41c15.15-1.24,24.33-18.37,24.38-33.59s-6-29.79-7.87-44.89,2.1-33,15.71-39.78c13.86-6.89,31.39,1.64,39.76,14.67s9.89,29.17,11.18,44.61c1.77,21.26,3.42,43.25-3.52,63.42S822.33,297.64,801,297.66c-7,0-14.07-1.89-21-.67-13.58,2.4-22.35,16-26,29.33s-3.91,27.53-9,40.34-17.52,24.5-31.12,22.24c-20.93-3.48-26.48-34.62-46.71-41-9.42-3-19.59.32-28.7,4.12-18.34,7.64-33.54,11.1-49.36-3.46C579.67,339.8,571.74,325.9,569.8,313.16Z" transform="translate(118.79 75.54)"/><path class="cls-13" d="M683.94,263.16c3.15-21.09-9.66-44.13-30-50.51-20.84-6.54-48.1,2.47-62.26-14.18-10.37-12.18-6.41-30.62-1.22-45.75s10.92-32.5,2.9-46.34c-9.3-16.07-32.73-17.87-49.69-10.37s-30,21.6-45.14,32.3-35.36,18-52.05,9.94c-18.51-9-25-33-42.29-44.26-12.91-8.41-29.62-8.16-44.76-5.3s-30,8-45.36,8.54S281.81,92.31,274,79c-11.13-19,2.82-45.12,23.15-53.65s43.69-4,64.54,3.18,41.21,16.93,63.17,18.75c42.78,3.54,81.3-23.08,118.71-44.14,21.79-12.27,47.08-23.25,71.09-16.32C654-1.82,671.76,52.16,712.32,57.61c25.94,3.47,53.32-15,77.26-4.43,16.37,7.22,24.74,26.11,26,44A87.31,87.31,0,0,1,796.5,157.6c-11.56,14.23-27.76,25-35.74,41.48-8.9,18.41-5.77,40.17-1.4,60.15s9.78,40.71,4.86,60.56-24.56,37.8-44.31,32.64c-15-3.93-25.47-19.62-40.9-21.57-17.61-2.24-25.94,12.48-40,19.53-7.35,3.68-16,5.47-23.86,3.15s-14.62-9.4-14.91-17.62c-.41-11.47,10.9-20,21.89-23.24C649.78,304.46,678.83,297.26,683.94,263.16Z" transform="translate(118.79 75.54)"/><path class="cls-14" d="M533.05,156c1.51,13.4,6.91,27.31,2,39.88-7.77,20-36.57,24.29-45.59,43.71-7.67,16.53,5.18,38.14,23.1,41.32s36.42-10.41,41.07-28c2-7.62,1.84-15.76,4.44-23.21s9.4-14.48,17.21-13.41c8.28,1.12,12.84,10.5,13.46,18.84s-1.18,16.93,1,25a25.79,25.79,0,0,0,43.86,10.66c12.79-13.9,6.71-36.84-4.61-52s-27.16-27.16-34.81-44.44c-3.74-8.44-5.07-18.91.24-26.46s19-8.53,22.88-.18c3.49,7.41-2.28,16.06-1.18,24.17,1.51,11.06,16.37,16.38,26.23,11.2s14.44-17.22,14.31-28.38c-.18-14.54-6.33-31,2.7-42.4,7.45-9.37,21.72-9.76,33.18-6.31,31.92,9.63,53.94,44.73,48.75,77.7-2.48,15.73-10.3,31.68-5.48,46.85,4.18,13.18,18.44,22.25,32.17,20.7s25.53-13.35,27.38-27.05c2.48-18.46-11.07-37.87-3.66-54.95,5.39-12.41,19.85-14.19,26.75-25.81,3.84-6.47,4.48-15.47-.54-21.06-7.92-8.8-23.22-4-33.3-10.18-10.73-6.6-10.8-22.34-6.85-34.32s10.7-23.79,9.16-36.3c-1.71-13.89-14.18-25-27.94-27.45s-28.11,2.82-38.89,11.72c-7.54,6.22-13.57,14.1-21,20.39s-17.21,11-26.8,9.19c-11.67-2.27-19.22-13.18-27.8-21.43s-23.19-14-31.63-5.63c-6.36,6.31-5.11,16.65-6.61,25.49-2.93,17.13-37.13,25.9-49,38.22C541,108.91,530.37,132.21,533.05,156Z" transform="translate(118.79 75.54)"/><path class="cls-15" d="M637.54,271.67c-1.74-9.23-1.12-20.8-9.22-25.53-9.13-5.32-20.23,3.71-24.88,13.21s-7.41,21-16.45,26.48c-6.32,3.81-14.17,3.6-21.37,5.2-13.2,2.93-25.27,13.72-26.41,27.22s11.82,27.31,25,24.32c19-4.31,32.6-23.52,47.61,1.73,3.65,6.13,5.88,13.31,11,18.22,7.07,6.71,18,7.52,27.54,5.83,11.05-2,21.84-7,29.18-15.45s10.73-20.76,7.13-31.41C678.54,297.25,643.19,301.63,637.54,271.67Z" transform="translate(118.79 75.54)"/><path class="cls-16" d="M703.37,322.27c-13.57-15.68-11.44-43.88,6.68-53.95,12-6.65,28.44-5.19,37.54-15.46,7.84-8.85,6.43-22.61,2.2-33.66S739,197.75,737.65,186a38.2,38.2,0,0,1,53.42-39.19c18.67,8.29,27.62,29.92,30.4,50.17,5.32,39-7.17,79.51-31.74,109.92C768.4,333.28,732.11,355.47,703.37,322.27Z" transform="translate(118.79 75.54)"/><path class="cls-17" d="M247.57,120.94c-11.87,9.09-14.2,25.66-17.22,40.31s-10,31.27-24.59,34.48c-16.32,3.6-30.53-12.21-36.63-27.79a102.4,102.4,0,0,1,7.57-88.75c12.62-20.9,33.51-37.1,57.39-42.08,22.07-4.6,60.24-.06,65.55,26.86,2.51,12.72-.65,29.85-10.24,38.94C277.88,113.82,259.93,111.48,247.57,120.94Z" transform="translate(118.79 75.54)"/><path class="cls-16" d="M689.25,251.48c7.39-.62,12.71-8.06,13.59-15.44s-1.59-14.69-3.9-21.75-4.54-14.51-3.2-21.81c2.76-14.94,19.32-24.36,22.07-39.3a23,23,0,0,0-39.47-19.89c-7.21,7.75-8.24,19.33-7.92,29.92S672,184.82,668,194.63,655.15,212,652.14,222.15c-3.68,12.49,3.53,27.2,15.65,31.92s27.35-1.26,33.06-13" transform="translate(118.79 75.54)"/></g><g class="cls-18"><path class="cls-19" d="M0,375.52A373.32,373.32,0,0,1,110.56,110a378.45,378.45,0,0,1,533.85,0A375.7,375.7,0,0,1,377.48,751.05,377.66,377.66,0,0,1,29.66,521.7,371.61,371.61,0,0,1,0,375.52Zm750.69,0C750.69,170.8,583.27,4.25,377.48,4.25S4.27,170.8,4.27,375.52,171.69,746.8,377.48,746.8,750.69,580.24,750.69,375.52Z" transform="translate(118.79 75.54)"/></g><g class="cls-20"><text class="cls-21" transform="matrix(0.33, -0.93, 0.94, 0.33, 218.18, 388.73)">Р</text><text class="cls-21" transform="translate(234.19 337.19) rotate(-58.42) scale(0.99 1)">А</text><text class="cls-21" transform="matrix(0.71, -0.69, 0.7, 0.72, 271.58, 275.23)">С</text><text class="cls-21" transform="matrix(0.86, -0.48, 0.49, 0.87, 321.07, 225.63)">П</text><text class="cls-21" transform="translate(388.14 186.95) rotate(-13.48) scale(0.99 1)">И</text><text class="cls-21" transform="translate(465.87 168.29) rotate(1.6) scale(0.99 1)">С</text><text class="cls-21" transform="translate(536.53 169.44) rotate(16.07) scale(0.99 1)">А</text><text class="cls-21" transform="matrix(0.84, 0.52, -0.52, 0.85, 607.98, 188.9)">Н</text><text class="cls-21" transform="matrix(0.67, 0.73, -0.74, 0.68, 675.83, 229.45)">И</text><text class="cls-21" transform="translate(729.58 288.98) rotate(61.41) scale(0.99 1)">Е</text><text class="cls-21" transform="matrix(0.34, 0.93, -0.94, 0.34, 757.54, 342.64)"> </text><text class="cls-21" transform="translate(766.34 366.66) rotate(75.3) scale(0.99 1)"> </text><text class="cls-21" transform="translate(772.92 391.37) rotate(80.55) scale(0.99 1)"> </text><text class="cls-21" transform="matrix(0.07, 0.99, -1, 0.07, 777.21, 416.6)"> </text><text class="cls-21" transform="translate(779.17 442.09) rotate(91.06) scale(0.99 1)"> </text><text class="cls-21" transform="matrix(-0.17, 0.97, -0.98, -0.18, 780.62, 466.43)">Р</text><text class="cls-21" transform="translate(773.19 519.89) rotate(112.18) scale(0.99 1)">А</text><text class="cls-21" transform="translate(746.45 587.11) rotate(126.54) scale(0.99 1)">С</text><text class="cls-21" transform="translate(705.67 644.08) rotate(141.46) scale(0.99 1)">П</text><text class="cls-21" transform="matrix(-0.91, 0.38, -0.39, -0.92, 645.7, 693.02)">И</text><text class="cls-21" transform="translate(571.97 723.99) rotate(172.34) scale(0.99 1)">С</text><text class="cls-21" transform="matrix(-0.98, -0.12, 0.12, -0.99, 502.08, 734.22)">А</text><text class="cls-21" transform="translate(428.41 726.37) rotate(-157.82) scale(0.99 1)">Н</text><text class="cls-21" transform="translate(354.93 697.3) rotate(-141.85) scale(0.99 1)">И</text><text class="cls-21" transform="matrix(-0.61, -0.78, 0.79, -0.61, 292.3, 647.2)">Е</text></g><ellipse class="cls-2" cx="496.27" cy="451.06" rx="373.21" ry="371.27"/><ellipse class="cls-22" cx="464.29" cy="483.45" rx="318.88" ry="317.22"/><ellipse class="cls-23" cx="496.27" cy="449.06" rx="285.28" ry="283.8"/><g class="cls-18"><path class="cls-24" d="M92.2,373.52a282.18,282.18,0,0,1,83.56-200.67,285.86,285.86,0,0,1,464.59,90.21A282.59,282.59,0,0,1,579.21,574.2,285.86,285.86,0,0,1,114.62,484,280.86,280.86,0,0,1,92.2,373.52Zm567.33,0c0-154.71-126.52-280.58-282-280.58s-282,125.87-282,280.58S222,654.11,377.48,654.11,659.53,528.24,659.53,373.52Z" transform="translate(118.79 75.54)"/></g><g class="cls-25"><path class="cls-26" d="M163.68,417.6c1.87,12.24-2.38,25.88-12.56,32.91-16.24,11.22-39.13,2.23-57.76,8.72-15.72,5.49-25.8,21.32-30,37.45s-3.7,33.06-5.2,49.66-5.45,33.88-16.7,46.17S9.88,610-3.48,600c-12.95-9.64-14.48-28.64-11.25-44.47s10-31.24,9.38-47.39S-18,474.41-34.09,475.73C-49.24,477-58.42,494.1-58.46,509.32s6,29.79,7.86,44.89-2.1,33-15.71,39.78c-13.85,6.9-31.39-1.64-39.75-14.67s-9.9-29.16-11.18-44.6c-1.77-21.27-3.42-43.25,3.51-63.43s24.87-38.17,46.18-38.19c7,0,14.06,1.89,21,.67,13.58-2.4,22.36-16,26-29.32s3.9-27.53,9-40.35,17.51-24.5,31.11-22.24c20.93,3.48,26.48,34.62,46.72,41,9.41,3,19.58-.31,28.7-4.11,18.34-7.65,33.53-11.11,49.35,3.45C153.81,391,161.73,404.87,163.68,417.6Z" transform="translate(118.79 75.54)"/><path class="cls-7" d="M49.54,467.6c-3.16,21.09,9.65,44.13,30,50.51,20.85,6.54,48.1-2.47,62.27,14.18,10.36,12.18,6.4,30.62,1.21,45.75s-10.92,32.5-2.9,46.35c9.3,16.06,32.73,17.87,49.69,10.36s30-21.59,45.15-32.29,35.35-18.05,52-10c18.52,9,25,33,42.29,44.26,12.91,8.41,29.63,8.17,44.77,5.3s30-8,45.35-8.54,32.28,4.93,40.06,18.24c11.14,19-2.82,45.12-23.14,53.65s-43.7,4-64.54-3.17-41.22-16.93-63.18-18.75c-42.78-3.55-81.3,23.07-118.71,44.14-21.78,12.26-47.08,23.25-71.09,16.31-39.32-11.36-57.06-65.35-97.63-70.79-25.93-3.48-53.31,15-77.26,4.43-16.36-7.22-24.74-26.11-26-44A87.26,87.26,0,0,1-63,573.16c11.55-14.23,27.76-25,35.74-41.48,8.89-18.4,5.76-40.17,1.39-60.15s-9.77-40.71-4.86-60.55,24.56-37.81,44.32-32.64C28.62,382.27,39,398,54.47,399.91c17.61,2.23,25.93-12.49,40-19.53,7.35-3.68,16-5.47,23.86-3.16s14.63,9.41,14.92,17.63c.4,11.47-10.91,20-21.89,23.23C83.69,426.3,54.64,433.51,49.54,467.6Z" transform="translate(118.79 75.54)"/><path class="cls-27" d="M200.42,574.79c-1.51-13.39-6.91-27.31-2-39.87,7.76-20,36.56-24.3,45.58-43.72,7.67-16.52-5.18-38.13-23.1-41.31s-36.41,10.4-41.07,28c-2,7.63-1.84,15.76-4.44,23.21s-9.4,14.48-17.21,13.42c-8.27-1.13-12.84-10.5-13.46-18.85s1.19-16.93-1-25A25.78,25.78,0,0,0,99.81,460c-12.78,13.9-6.71,36.84,4.62,52s27.15,27.17,34.8,44.44c3.74,8.44,5.08,18.92-.24,26.46s-19,8.53-22.88.18c-3.48-7.41,2.28-16.06,1.18-24.17-1.5-11-16.36-16.38-26.22-11.19s-14.45,17.22-14.32,28.37c.18,14.54,6.34,31-2.7,42.4-7.45,9.38-21.72,9.77-33.18,6.31C9,615.17-13.07,580.06-7.88,547.09c2.48-15.73,10.3-31.67,5.49-46.85-4.19-13.18-18.45-22.25-32.17-20.7S-60.1,492.89-61.94,506.6c-2.49,18.46,11.07,37.87,3.65,54.95C-63.68,574-78.14,575.73-85,587.35c-3.84,6.47-4.48,15.48.55,21.06,7.92,8.8,23.22,4,33.3,10.18,10.73,6.6,10.8,22.35,6.84,34.32S-55,676.7-53.5,689.22c1.71,13.88,14.17,25,27.93,27.44S2.55,713.84,13.33,705c7.54-6.22,13.56-14.11,21-20.4s17.2-11,26.79-9.18c11.68,2.26,19.22,13.18,27.8,21.42s23.2,14,31.64,5.63c6.35-6.31,5.1-16.65,6.61-25.48,2.92-17.13,37.12-25.91,49-38.22C192.45,621.85,203.1,598.56,200.42,574.79Z" transform="translate(118.79 75.54)"/><path class="cls-28" d="M95.93,459.09c1.74,9.24,1.12,20.8,9.23,25.53,9.12,5.32,20.22-3.71,24.87-13.2s7.41-21,16.46-26.49c6.31-3.81,14.16-3.6,21.36-5.19,13.21-2.94,25.27-13.73,26.42-27.23s-11.83-27.3-25-24.31c-19,4.3-32.6,23.51-47.61-1.74-3.65-6.13-5.88-13.3-11-18.22-7.07-6.71-18-7.52-27.53-5.82-11,1.95-21.85,6.95-29.19,15.44s-10.73,20.77-7.13,31.41C54.93,433.51,90.28,429.13,95.93,459.09Z" transform="translate(118.79 75.54)"/><path class="cls-10" d="M30.1,408.49c13.57,15.69,11.44,43.88-6.68,53.95-12,6.66-28.44,5.2-37.53,15.46-7.85,8.85-6.44,22.61-2.2,33.66S-5.48,533-4.17,544.78a39,39,0,0,1-15.39,35.08,38.91,38.91,0,0,1-38,4.11C-76.27,575.68-85.22,554.06-88,533.8c-5.33-38.95,7.16-79.51,31.74-109.92C-34.93,397.49,1.36,375.29,30.1,408.49Z" transform="translate(118.79 75.54)"/><path class="cls-29" d="M485.9,609.82c11.88-9.08,14.2-25.65,17.22-40.31s10-31.27,24.59-34.48c16.32-3.59,30.54,12.21,36.63,27.8a102.37,102.37,0,0,1-7.57,88.75c-12.62,20.9-33.51,37.09-57.39,42.07-22.07,4.6-60.23.06-65.55-26.86-2.51-12.72.65-29.85,10.24-38.93C455.6,616.94,473.54,619.28,485.9,609.82Z" transform="translate(118.79 75.54)"/><path class="cls-11" d="M44.22,479.29c-7.39.61-12.71,8-13.58,15.43s1.59,14.69,3.9,21.75,4.54,14.51,3.19,21.81c-2.75,15-19.32,24.36-22.07,39.31A23.71,23.71,0,0,0,28,602.35a23.66,23.66,0,0,0,27.18-4.88c7.22-7.75,8.24-19.32,7.92-29.91S61.51,546,65.49,536.13s12.83-17.33,15.84-27.52c3.69-12.48-3.53-27.2-15.64-31.91S38.33,478,32.63,489.65" transform="translate(118.79 75.54)"/><path class="cls-12" d="M569.8,313.16c-1.87-12.23,2.38-25.88,12.55-32.91,16.24-11.22,39.13-2.22,57.76-8.72,15.72-5.48,25.8-21.31,30-37.45s3.7-33.05,5.2-49.65,5.46-33.89,16.71-46.17,31.57-17.46,44.93-7.51c13,9.64,14.48,28.64,11.25,44.48s-10,31.24-9.38,47.39,12.65,33.73,28.74,32.41c15.15-1.24,24.33-18.37,24.38-33.59s-6-29.79-7.87-44.89,2.1-33,15.71-39.78c13.86-6.89,31.39,1.64,39.76,14.67s9.89,29.17,11.18,44.61c1.77,21.26,3.42,43.25-3.52,63.42S822.33,297.64,801,297.66c-7,0-14.07-1.89-21-.67-13.58,2.4-22.35,16-26,29.33s-3.91,27.53-9,40.34-17.52,24.5-31.12,22.24c-20.93-3.48-26.48-34.62-46.71-41-9.42-3-19.59.32-28.7,4.12-18.34,7.64-33.54,11.1-49.36-3.46C579.67,339.8,571.74,325.9,569.8,313.16Z" transform="translate(118.79 75.54)"/><path class="cls-13" d="M683.94,263.16c3.15-21.09-9.66-44.13-30-50.51-20.84-6.54-48.1,2.47-62.26-14.18-10.37-12.18-6.41-30.62-1.22-45.75s10.92-32.5,2.9-46.34c-9.3-16.07-32.73-17.87-49.69-10.37s-30,21.6-45.14,32.3-35.36,18-52.05,9.94c-18.51-9-25-33-42.29-44.26-12.91-8.41-29.62-8.16-44.76-5.3s-30,8-45.36,8.54S281.81,92.31,274,79c-11.13-19,2.82-45.12,23.15-53.65s43.69-4,64.54,3.18,41.21,16.93,63.17,18.75c42.78,3.54,81.3-23.08,118.71-44.14,21.79-12.27,47.08-23.25,71.09-16.32C654-1.82,671.76,52.16,712.32,57.61c25.94,3.47,53.32-15,77.26-4.43,16.37,7.22,24.74,26.11,26,44A87.31,87.31,0,0,1,796.5,157.6c-11.56,14.23-27.76,25-35.74,41.48-8.9,18.41-5.77,40.17-1.4,60.15s9.78,40.71,4.86,60.56-24.56,37.8-44.31,32.64c-15-3.93-25.47-19.62-40.9-21.57-17.61-2.24-25.94,12.48-40,19.53-7.35,3.68-16,5.47-23.86,3.15s-14.62-9.4-14.91-17.62c-.41-11.47,10.9-20,21.89-23.24C649.78,304.46,678.83,297.26,683.94,263.16Z" transform="translate(118.79 75.54)"/><path class="cls-30" d="M533.05,156c1.51,13.4,6.91,27.31,2,39.88-7.77,20-36.57,24.29-45.59,43.71-7.67,16.53,5.18,38.14,23.1,41.32s36.42-10.41,41.07-28c2-7.62,1.84-15.76,4.44-23.21s9.4-14.48,17.21-13.41c8.28,1.12,12.84,10.5,13.46,18.84s-1.18,16.93,1,25a25.79,25.79,0,0,0,43.86,10.66c12.79-13.9,6.71-36.84-4.61-52s-27.16-27.16-34.81-44.44c-3.74-8.44-5.07-18.91.24-26.46s19-8.53,22.88-.18c3.49,7.41-2.28,16.06-1.18,24.17,1.51,11.06,16.37,16.38,26.23,11.2s14.44-17.22,14.31-28.38c-.18-14.54-6.33-31,2.7-42.4,7.45-9.37,21.72-9.76,33.18-6.31,31.92,9.63,53.94,44.73,48.75,77.7-2.48,15.73-10.3,31.68-5.48,46.85,4.18,13.18,18.44,22.25,32.17,20.7s25.53-13.35,27.38-27.05c2.48-18.46-11.07-37.87-3.66-54.95,5.39-12.41,19.85-14.19,26.75-25.81,3.84-6.47,4.48-15.47-.54-21.06-7.92-8.8-23.22-4-33.3-10.18-10.73-6.6-10.8-22.34-6.85-34.32s10.7-23.79,9.16-36.3c-1.71-13.89-14.18-25-27.94-27.45s-28.11,2.82-38.89,11.72c-7.54,6.22-13.57,14.1-21,20.39s-17.21,11-26.8,9.19c-11.67-2.27-19.22-13.18-27.8-21.43s-23.19-14-31.63-5.63c-6.36,6.31-5.11,16.65-6.61,25.49-2.93,17.13-37.13,25.9-49,38.22C541,108.91,530.37,132.21,533.05,156Z" transform="translate(118.79 75.54)"/><path class="cls-15" d="M637.54,271.67c-1.74-9.23-1.12-20.8-9.22-25.53-9.13-5.32-20.23,3.71-24.88,13.21s-7.41,21-16.45,26.48c-6.32,3.81-14.17,3.6-21.37,5.2-13.2,2.93-25.27,13.72-26.41,27.22s11.82,27.31,25,24.32c19-4.31,32.6-23.52,47.61,1.73,3.65,6.13,5.88,13.31,11,18.22,7.07,6.71,18,7.52,27.54,5.83,11.05-2,21.84-7,29.18-15.45s10.73-20.76,7.13-31.41C678.54,297.25,643.19,301.63,637.54,271.67Z" transform="translate(118.79 75.54)"/><path class="cls-31" d="M703.37,322.27c-13.57-15.68-11.44-43.88,6.68-53.95,12-6.65,28.44-5.19,37.54-15.46,7.84-8.85,6.43-22.61,2.2-33.66S739,197.75,737.65,186a38.2,38.2,0,0,1,53.42-39.19c18.67,8.29,27.62,29.92,30.4,50.17,5.32,39-7.17,79.51-31.74,109.92C768.4,333.28,732.11,355.47,703.37,322.27Z" transform="translate(118.79 75.54)"/><path class="cls-16" d="M247.57,120.94c-11.87,9.09-14.2,25.66-17.22,40.31s-10,31.27-24.59,34.48c-16.32,3.6-30.53-12.21-36.63-27.79a102.4,102.4,0,0,1,7.57-88.75c12.62-20.9,33.51-37.1,57.39-42.08,22.07-4.6,60.24-.06,65.55,26.86,2.51,12.72-.65,29.85-10.24,38.94C277.88,113.82,259.93,111.48,247.57,120.94Z" transform="translate(118.79 75.54)"/><path class="cls-32" d="M689.25,251.48c7.39-.62,12.71-8.06,13.59-15.44s-1.59-14.69-3.9-21.75-4.54-14.51-3.2-21.81c2.76-14.94,19.32-24.36,22.07-39.3a23,23,0,0,0-39.47-19.89c-7.21,7.75-8.24,19.33-7.92,29.92S672,184.82,668,194.63,655.15,212,652.14,222.15c-3.68,12.49,3.53,27.2,15.65,31.92s27.35-1.26,33.06-13" transform="translate(118.79 75.54)"/></g></g></g></g></svg>